<?xml version="1.0" encoding="utf-8"?>
<!-- Generator: Adobe Illustrator 18.0.0, SVG Export Plug-In . SVG Version: 6.00 Build 0)  -->
<!DOCTYPE svg PUBLIC "-//W3C//DTD SVG 1.1//EN" "http://www.w3.org/Graphics/SVG/1.1/DTD/svg11.dtd">
<svg version="1.1" id="Layer_1" xmlns="http://www.w3.org/2000/svg" xmlns:xlink="http://www.w3.org/1999/xlink" x="0px" y="0px"
	 viewBox="0 0 1808.1 235.5" enable-background="new 0 0 1808.1 235.5" xml:space="preserve">
<g>
	<path d="M2.4,227V2.4h21.7V227H2.4z M195.7,146.1c0,12.1-2.3,23.3-6.9,33.9c-4.6,10.5-10.9,19.6-18.9,27.3
		c-8,7.7-17.3,13.8-27.9,18.2c-10.6,4.5-22,6.7-34,6.7c-0.9,0-2.6-0.1-5.1-0.3c-2.5-0.2-5.3-0.5-8.2-0.8c-3-0.3-6-0.8-9-1.5
		c-3.1-0.7-5.7-1.5-7.9-2.6H35.3V2.4h53.9v59.5c6.1-1.3,12.4-2,18.7-2c12.1,0,23.4,2.2,34,6.6c10.6,4.4,19.9,10.5,27.9,18.2
		c8,7.8,14.3,16.9,18.9,27.5C193.4,122.8,195.7,134.1,195.7,146.1z"/>
	<path d="M255.6,213.2c-22.4-17.8-33.5-40.9-33.5-69.4c0-28.3,11.2-51.4,33.5-69.4V213.2z M397.9,143.8c0,12.3-2.3,23.7-6.9,34.4
		c-4.6,10.6-10.9,19.9-18.9,27.9c-8,8-17.4,14.3-28.1,18.9c-10.7,4.6-22.1,6.9-34.2,6.9c-14.9,0-29.2-3.7-42.7-11.2V66.9
		c13.6-7.4,27.8-11.2,42.7-11.2c12.1,0,23.5,2.3,34.2,6.9c10.7,4.6,20.1,10.9,28.1,18.9c8,8,14.3,17.4,18.9,28.1
		C395.6,120.4,397.9,131.8,397.9,143.8z"/>
	<path d="M418.3,227l51.9-81.2V227H418.3z M435.1,60.3h35.2v67.4L435.1,60.3z M481.4,227V60.3h100.9l-40.1,77.3l56.9,89.4H481.4z"/>
	<path d="M625.4,227V2.8h21.7V227H625.4z M790.8,202.7c0,8.3-1,16.4-3,24.3H658.7V2.8H708v57.5h61.5l-32.9,55.9
		c8.3,3.9,15.8,8.9,22.5,15c6.7,6,12.4,12.8,17.1,20.2c4.7,7.5,8.3,15.6,10.9,24.3C789.6,184.5,790.8,193.5,790.8,202.7z"/>
	<path d="M854,210.9c-11.6-8.3-20.7-18-27.1-28.9c-6.5-11-9.7-23.7-9.7-38.1c0-14.5,3.2-27.2,9.7-38.1c6.5-11,15.5-20.6,27.1-28.9
		V210.9z M1014.1,143.8c0,11.8-2.6,23-7.9,33.5h-74.3v37.8c5.7-1.1,11.3-2.6,16.8-4.6c5.5-2,10.7-4.5,15.8-7.6l9.9,9.9
		c-17.8,11.4-37.3,17.1-58.5,17.1c-8.8,0-17.4-1-26-3c-8.5-2-16.7-5-24.3-9.2v-148c7.7-4.4,15.8-7.5,24.3-9.4
		c8.5-1.9,17.2-2.8,26-2.8c12.3,0,24.3,2,36,6.1c11.7,4.1,22.2,9.8,31.4,17.3c9.2,7.5,16.7,16.5,22.4,27.1
		C1011.2,118.8,1014.1,130.7,1014.1,143.8z"/>
	<path d="M1069,207.6c-6.1-6.4-10.8-13.4-14.1-21.2c-3.3-7.8-4.9-16.2-4.9-25.2V77.1h-9.5V60.3c4.4,0,9.1-0.2,14.3-0.5
		c5.1-0.3,9.9-1.3,14.3-2.8V207.6z M1138.7,77.1v141.4c4.4-0.4,8.7-1.3,12.8-2.5c4.2-1.2,8.2-2.8,12.2-4.8V226
		c-5.3,2-10.7,3.5-16.3,4.6c-5.6,1.1-11.2,1.6-16.9,1.6c-18.6,0-35.3-5-50-15.1V51.7c16.4-10.1,25.3-24.7,26.6-43.7h31.6v52.3h33.9
		v16.8H1138.7z"/>
	<path d="M1198.8,227V2.4h21.7V227H1198.8z M1392.2,146.1c0,12.1-2.3,23.3-6.9,33.9c-4.6,10.5-10.9,19.6-18.9,27.3
		c-8,7.7-17.3,13.8-27.9,18.2c-10.6,4.5-22,6.7-34,6.7c-0.9,0-2.6-0.1-5.1-0.3c-2.5-0.2-5.3-0.5-8.2-0.8c-3-0.3-6-0.8-9-1.5
		c-3.1-0.7-5.7-1.5-7.9-2.6h-42.4V2.4h53.9v59.5c6.1-1.3,12.4-2,18.7-2c12.1,0,23.4,2.2,34,6.6c10.6,4.4,19.9,10.5,27.9,18.2
		c8,7.8,14.3,16.9,18.9,27.5C1389.9,122.8,1392.2,134.1,1392.2,146.1z"/>
	<path d="M1451,220.1c-9.9-4.6-17.8-10.6-23.7-18.1c-5.9-7.4-8.9-16.9-8.9-28.3c0-11.2,3-20.6,8.9-28.3c5.9-7.7,13.8-13.8,23.7-18.4
		V220.1z M1578.3,118.2c0,18.4,0,36.6,0,54.4c0,17.9-0.1,36-0.3,54.4h-96.7c-6.1,0-12.5-0.9-19.1-2.6V122.8
		c5.9-1.5,12.4-2.3,19.4-2.3v-46c-6.4,0.9-12.6,2.2-18.7,3.9c-6.1,1.8-12.1,4.3-17.8,7.6l-9.5-9.5c8.8-5.7,18-9.8,27.8-12.3
		c9.8-2.5,19.9-3.8,30.4-3.8c8.3,0,17.4,1.1,27.3,3.3c9.9,2.2,19,5.6,27.5,10.4c8.4,4.7,15.5,10.7,21.2,18.1
		C1575.4,99.4,1578.3,108.1,1578.3,118.2z"/>
	<path d="M1604.6,227V2.4h20.1V227H1604.6z M1636.1,227V2.4h56.9V227H1636.1z"/>
	<path d="M1719.3,227V2.4h20.1V227H1719.3z M1750.9,227V2.4h56.9V227H1750.9z"/>
</g>
</svg>
