<?xml version="1.0" encoding="utf-8"?>
<!-- Generator: Adobe Illustrator 18.0.0, SVG Export Plug-In . SVG Version: 6.00 Build 0)  -->
<!DOCTYPE svg PUBLIC "-//W3C//DTD SVG 1.1//EN" "http://www.w3.org/Graphics/SVG/1.1/DTD/svg11.dtd">
<svg version="1.1" id="Layer_1" xmlns="http://www.w3.org/2000/svg" xmlns:xlink="http://www.w3.org/1999/xlink" x="0px" y="0px"
	 viewBox="0 0 740 697" enable-background="new 0 0 740 697" xml:space="preserve">
<g>
	<path fill-rule="evenodd" clip-rule="evenodd" d="M151,413.1c-24.5,18.9-36.6,45.1-48.1,72.2c-14.5,33.9-23.8,72-52.6,96.7
		c-13-30.1-18.1-65.8-15.6-94.1c0.8-9,1.5-20.9,4.7-26.9c7.4-13.9,41.5-34.6,60.9-40.7C118,414.6,134.5,413.2,151,413.1z"/>
	<path fill-rule="evenodd" clip-rule="evenodd" d="M258.8,470.2C214.5,530.8,147.2,577,69.2,616.7c-5.8-7.3-10.1-17-15.3-25.4
		c41.8-31.5,47.8-95.1,76.1-140.5c7.1-11.3,24-35.6,36.3-35.8c16.7-0.2,37.1,9.2,52,18.4C234.3,443.5,248.1,456.5,258.8,470.2z"/>
	<path fill-rule="evenodd" clip-rule="evenodd" d="M97.7,648.4c-8.9-6-16.3-14.6-22.9-24.4c77.8-39.5,142.5-87.2,188-146.9
		c23.1,30.7,30.2,80.4,19.4,111.7C229,637.7,158.8,630.4,97.7,648.4z"/>
	<path fill-rule="evenodd" clip-rule="evenodd" d="M9.2,590.7c10.5,3.2,20.2,7.6,35.2,3.5c4.7,9.5,9.6,18.5,14.9,27
		c-10.5,3.6-19.2,8.3-32,10.6C20.2,619.9,13.2,607.7,9.2,590.7z"/>
	<path fill-rule="evenodd" clip-rule="evenodd" d="M64.9,628.6c6.6,10,15,17.4,22.5,26.1c-7.8,4.9-12.8,11.5-14.9,19.9
		c-15.7-8-28.2-21.3-40.2-35.2C43.2,635.8,54.5,632.5,64.9,628.6z"/>
	<path fill-rule="evenodd" clip-rule="evenodd" d="M276.4,603c-7.1,27.5-31.4,56.7-61.1,73.6c-10.5,6-24.8,13.7-35.7,14.6
		c-10.2,0.8-30.5-9.5-39.1-13.6c-13-6.1-25.3-12.6-33.1-21.2C167.4,644.1,241.9,639.2,276.4,603z"/>
	<path fill-rule="evenodd" clip-rule="evenodd" d="M164.4,693.1c-31.9,6-60.4-2.2-83.7-13.4c1.7-8.1,7.4-13.6,14.5-18.2
		C116.3,675.2,137.8,688.2,164.4,693.1z"/>
	<path fill-rule="evenodd" clip-rule="evenodd" d="M27.2,476.3c-3.8,29-0.8,73.3,13.9,110.2c-11.3,2.9-31.1-1.3-35-9.1
		c-3.2-6.3-2.7-21-2.3-30C5,520.8,16,493.8,27.2,476.3z"/>
</g>
<g>
	<path fill-rule="evenodd" clip-rule="evenodd" d="M23,463.4c13.7-41.5,69.1-78.3,112.3-91.8c16.7-5.2,26.8-13.7,37.4-25.2
		c14.8-16.1,4.9-53,13.3-72.5c5.3-12.4,11.7-14.8,22.7-25.6c2.5,5-8.5,18.2-10.4,29.5c-3.1,18.6,3.7,45.5,24.3,36.7
		c19.9-8.5,11.1-56.9,18-77c6-17.5,27.3-36.3,53.2-42.8c38.4-9.6,67.8-6.1,69.9-45c9.6,35.4-20.8,52.9-53.8,65
		c-21.5,7.9-44.4,15-41.7,36.8c2.3,18.6,22.3,35.9,39.9,29.7c16.5-5.8,18.4-38.1,25.3-51.6c12.8-24.9,37.4-46.7,69.6-58.5
		c33.6-12.4,58.3-31.2,66.9-57.9c0.8,87-115.2,70.8-128.6,150.1c-2.5,14.6,3.6,25.8,0.6,45.6c-1.5,9.7-10.6,12.7-11.5,24.7
		c11.1,13.8,38.2,7.4,42.2-9.8c4.9-21.3-7.9-49.5-1.7-69c12.6-39.5,74.7-35.6,106.1-61.9c24.2-20.3,22.5-53.7,31.7-86.1
		c3.1,35.8,2.4,64.8-13.9,88.7c-17.1,25.2-45,35.3-65.9,56c-6,5.9-13.3,16-11.1,26.3c5.4,25.7,35.4,21.2,49,7.2
		c20.1-20.6,23.6-62.6,38.5-93.6c14.8-30.8,36.9-56,73.2-67.8c58.6-19,116.8-18.5,141.4-58.2c10.8-17.5,13.3-38,14.2-62.6
		c9,39-0.2,68.2-15,89.9c-23.7,34.9-67.4,45.4-112.3,60c-45.2,14.6-90.2,52.9-74.7,110.5c30.7,2.6,44-30,43.6-59.2
		c5.9,23.9-0.1,48-11.4,61.9c-12.1,14.9-29.7,16.1-51.8,23.9c-15,5.3-29.4,17.3-36,30.4c-11.4,22.7-3.7,38.5-27.8,47.1
		c-28.6,10.2-60.6-8.1-89.2-1.3c-15.1,3.6-49.6,19-38.1,46.1c12.4,29,30.8-13.9,41.6-24.9c15.7-16.1,31.7-7.9,55.6-2
		c-13.7,5.8-38.3-4.6-40,13.6c11.2,18.8,35.1,7.6,52,1.5c38.6-14,65.9-38,62.3-83.9c15.1,59.8-14.6,100.2-63.3,116.3
		c-17.5,5.8-44.6,5.2-48.4,26.5c17.6,34.7,68.1,23.4,98.9,5.8c-16.4,46.2-105.8,22.8-134.2,58.3c-13.7,17.1-16.8,36.6-23.5,60.1
		c-10.8,37.5-51.1,84.5-89.7,95.4c36.7-32.5,65-56.9,66.9-126.1c1.5-54.1-36.1-95.9-48.6-108.4C197.6,391.2,91.2,380.3,23,463.4z"/>
</g>
</svg>
