<?xml version="1.0" encoding="utf-8"?>
<!-- Generator: Adobe Illustrator 18.0.0, SVG Export Plug-In . SVG Version: 6.00 Build 0)  -->
<!DOCTYPE svg PUBLIC "-//W3C//DTD SVG 1.1//EN" "http://www.w3.org/Graphics/SVG/1.1/DTD/svg11.dtd">
<svg version="1.1" id="Layer_1" xmlns="http://www.w3.org/2000/svg" xmlns:xlink="http://www.w3.org/1999/xlink" x="0px" y="0px"
	 viewBox="0 0 1808.1 138" enable-background="new 0 0 1808.1 138" xml:space="preserve">
<g>
	<path d="M42.4,35.9v15.3c-1.1-0.4-2.1-0.6-3-0.7c-0.8,0-1.7,0-2.4,0.1c-0.8,0.1-1.7,0.2-2.6,0.4c-1,0.2-2.1,0.2-3.4,0.2
		c-2.7,2.3-4.7,5.6-5.9,9.8c-1.3,4.2-1.9,8.6-2,13.3c-0.1,4.6,0.5,9.1,1.6,13.4c1.1,4.3,2.8,7.8,5.1,10.4c0.7,0.1,1.6,0.3,2.6,0.5
		c1.1,0.3,2.2,0.4,3.3,0.5c1.1,0.1,2.2,0.1,3.2,0c1-0.1,1.8-0.5,2.3-1.1c0.7,0.8,1.1,1.8,1.3,3.1c0.1,1.3,0.2,2.6,0.1,4
		c-0.1,1.4-0.1,2.8-0.2,4.2c-0.1,1.4,0,2.7,0.1,3.9c-9.2,2.5-16.5,2.9-22,1.2c-5.5-1.7-9.7-4.8-12.6-9.3c-2.9-4.5-4.7-10-5.4-16.5
		C1.7,82.1,1.5,75.4,2,68.3c0.4-5.4,1.2-10.4,2.2-15c1.1-4.6,3-8.5,5.9-11.6c2.9-3.1,6.9-5.2,12-6.4C27.2,34.2,34,34.3,42.4,35.9z
		 M72.5,7.1v107.1H52.4c-0.1-8.7-0.4-17.6-0.6-26.6c-0.3-9-0.5-18.1-0.6-27.2c-0.1-9.1-0.1-18.1,0-27c0.1-8.9,0.6-17.7,1.3-26.3
		H72.5z"/>
	<path d="M113,34.9c0.6,5.2,0.7,10.6,0.3,16.3c-0.4,5.7-0.6,11.4-0.7,17c-0.1,5.6,0.1,10.9,0.7,16c0.6,5.1,2.2,9.4,4.8,13
		c2.3,0.8,4.4,1.3,6.6,1.4c2.1,0.2,4.5,0,7.2-0.5v14.4c-9.3,2-16.7,2.2-22.2,0.6c-5.5-1.6-9.7-4.4-12.5-8.3
		c-2.8-3.9-4.6-8.8-5.3-14.6c-0.7-5.8-1-11.9-0.8-18.3c0.1-6.4,0.4-12.8,0.8-19.2c0.4-6.4,0.4-12.3-0.2-17.7H113z M160.9,34.9v78.5
		h-20.1V34.9H160.9z"/>
	<path d="M220,35.9v15.3c-1.1-0.4-2.1-0.6-3-0.7c-0.8,0-1.7,0-2.4,0.1c-0.8,0.1-1.7,0.2-2.6,0.4c-1,0.2-2.1,0.2-3.4,0.2
		c-2.7,2.3-4.7,5.6-5.9,9.8c-1.3,4.2-1.9,8.6-2,13.3c-0.1,4.6,0.5,9.1,1.6,13.4c1.1,4.3,2.8,7.8,5.1,10.4c0.7,0.1,1.6,0.3,2.6,0.5
		c1.1,0.3,2.2,0.4,3.3,0.5c1.1,0.1,2.2,0.1,3.2,0c1-0.1,1.8-0.5,2.3-1.1c0.7,0.8,1.1,1.8,1.3,3.1c0.1,1.3,0.2,2.6,0.1,4
		c-0.1,1.4-0.1,2.8-0.2,4.2c-0.1,1.4,0,2.7,0.1,3.9c-9.2,2.5-16.5,2.9-22,1.2c-5.5-1.7-9.7-4.8-12.6-9.3c-2.9-4.5-4.7-10-5.4-16.5
		c-0.7-6.5-0.8-13.3-0.4-20.4c0.4-5.4,1.2-10.4,2.2-15c1.1-4.6,3-8.5,5.9-11.6c2.9-3.1,6.9-5.2,12-6.4
		C204.7,34.2,211.5,34.3,220,35.9z M250.1,7.1v107.1H230c-0.1-8.7-0.4-17.6-0.6-26.6c-0.3-9-0.5-18.1-0.6-27.2
		c-0.1-9.1-0.1-18.1,0-27c0.1-8.9,0.6-17.7,1.3-26.3H250.1z"/>
	<path d="M298.6,34.6V49c-4,1.6-6.9,3.9-8.8,6.8c-1.9,2.9-2.4,7-1.4,12.1c0.3,0.5,0.8,0.8,1.6,0.9c0.8,0.1,1.7,0.1,2.8,0.1
		c1.1,0,2.1-0.1,3.2-0.2c1.1-0.1,1.9,0,2.6,0.2v11.7h-10.2c-1.4,9.8,2,16.1,10.2,18.9v14.4c-5.7,0-10.6-1.1-14.8-3.4
		c-4.2-2.3-7.7-5.3-10.5-8.9c-2.8-3.7-4.8-7.9-6.1-12.6c-1.3-4.7-2-9.5-1.9-14.5c0.1-4.9,0.8-9.8,2.2-14.5c1.4-4.7,3.5-9,6.4-12.7
		c2.8-3.7,6.3-6.7,10.4-9C288.3,35.9,293.1,34.7,298.6,34.6z M307.3,34.6c7.5,0.4,13.4,1.9,17.8,4.6c4.4,2.7,7.7,6.1,10.1,10.2
		c2.3,4.1,3.8,8.9,4.3,14.2c0.6,5.4,0.8,11,0.6,16.8h-32.8V68.9h11.4c0-2.3-0.1-4.5-0.3-6.7c-0.2-2.1-0.7-4-1.5-5.8
		c-0.8-1.7-1.9-3.2-3.4-4.3c-1.5-1.2-3.6-1.9-6.3-2.2V34.6z M323.8,90.6c2.8,1.7,5.3,3.6,7.5,5.8c2.2,2.1,4.3,4.4,6.3,6.8
		c-2.1,1.3-4.2,2.7-6.1,4c-2,1.4-4.1,2.6-6.5,3.7c-2.3,1.1-4.9,2-7.7,2.8c-2.8,0.8-6.1,1.1-10,1.1V99.5c4.5-0.2,7.9-1.2,10.3-3.1
		C319.9,94.5,322,92.6,323.8,90.6z"/>
	<path d="M357.7,96.6h22.7c-0.4,2.4-0.5,4.8-0.3,7c0.2,2.3,0.5,4.4,0.7,6.5c0.3,2.1,0.5,4.1,0.5,6c0.1,1.9-0.2,3.8-1,5.6
		c-0.8,2.1-2.3,3.9-4.2,5.4c-2,1.5-4.1,2.8-6.5,3.9c-2.3,1.2-4.6,2.2-6.8,3.1c-2.2,0.9-3.9,1.9-5.2,2.9V96.6z"/>
	<path d="M505.8,6.2v16.2h-22.7V7.1c1.3-0.5,2.8-0.8,4.7-0.9c1.8-0.1,3.8-0.1,5.8-0.1c2,0.1,4.1,0.1,6.3,0.2
		C502,6.3,504,6.3,505.8,6.2z M505.8,35.9v78.3h-21.4V35.9H505.8z"/>
	<path d="M533.1,14.5h21.4V36c0.6,0.5,1.4,0.8,2.4,1c1.1,0.2,2.3,0.2,3.6,0.2c1.3,0,2.7-0.1,4.1-0.2c1.4-0.1,2.6-0.1,3.6,0v13.6
		h-13.8c0.1,3.8,0.1,7.8,0,11.8c-0.1,4-0.2,8.1-0.3,12.1c-0.1,4,0,8,0.2,11.8c0.2,3.8,0.7,7.5,1.4,11.1c0.4,0.5,1.1,0.8,2.1,0.9
		c1,0.1,2.1,0.1,3.3,0.1c1.2,0,2.4-0.1,3.7-0.2c1.3-0.1,2.4,0,3.4,0.2v15.3c-8.3,1.1-14.9,1-19.7-0.5c-4.8-1.4-8.4-3.7-10.9-6.8
		c-2.5-3.1-4-6.9-4.6-11.4c-0.6-4.4-0.8-9.1-0.6-14.1c0.1-4.9,0.4-10,0.8-15.2c0.4-5.2,0.4-9.9-0.2-14.4c-0.1-0.5-0.6-0.8-1.3-0.9
		c-0.7-0.1-1.5-0.1-2.4-0.1c-0.9,0.1-1.9,0.1-2.9,0.2c-1,0.1-1.8,0.1-2.3,0V36.9h8.9V14.5z"/>
	<path d="M585.7,34.2V-0.2h22.2v26.7c-2.8,1.9-5.2,3.6-7.1,5c-1.9,1.4-3.7,2.7-5.3,3.7c-1.6,1.1-3.2,2-4.7,2.8
		c-1.5,0.8-3.2,1.6-5.2,2.4V34.2z"/>
	<path d="M638.7,90.4c3.1,1.8,6.3,3.6,9.5,5.3c3.2,1.7,7.2,2.9,11.9,3.6v15.5c-8.3,0.1-15.1-0.9-20.4-3c-5.3-2.1-9.9-4.7-13.7-7.9
		c0.6-1.4,1.4-2.7,2.5-3.7c1.1-1.1,2.3-2.1,3.6-3.1c1.3-1,2.5-2,3.6-3.1C636.8,92.9,637.8,91.7,638.7,90.4z M657.5,34.5
		c1.4,0.4,2.3,1.2,2.5,2.3c0.3,1.2,0.4,2.5,0.2,3.9c-0.1,1.4-0.3,2.9-0.5,4.4c-0.2,1.5-0.1,2.8,0.3,3.9c-1.6,0.5-3.2,0.9-5,1.3
		c-1.8,0.4-3.1,1.1-3.9,2.2c-0.4,3.2-0.3,6,0.4,8.3c0.7,2.3,2.3,4,4.7,5.2c3.5,0.4,6.9,0.7,10.1,0.8c3.2,0.2,6.2,0.4,9,0.7
		c2.8,0.3,5.5,0.8,7.9,1.4c2.5,0.7,4.8,1.8,6.9,3.4c2.8,2,4.8,4.5,6,7.6c1.2,3,1.8,6.2,1.7,9.4c-0.1,3.2-0.8,6.4-2.2,9.6
		c-1.4,3.2-3.4,6-6,8.3c-2.6,2.4-5.8,4.2-9.5,5.5c-3.7,1.3-7.9,1.6-12.6,1.1c0.4-1.5,0.6-2.9,0.4-4c-0.1-1.2-0.3-2.2-0.5-3.3
		c-0.2-1-0.4-2-0.4-3c-0.1-1,0.1-2.1,0.5-3.3c0.4-1,1.1-1.8,2-2.3c0.9-0.6,1.8-1.1,2.8-1.7c0.9-0.6,1.8-1.1,2.6-1.7
		c0.8-0.6,1.3-1.3,1.5-2.3c0.4-1.8,0.2-3.6-0.7-5.2c-0.9-1.7-2.4-3.5-4.3-5.5c-3.1-0.6-6-1-8.7-1.1c-2.7-0.2-5.3-0.3-7.7-0.3
		c-2.5,0-4.8-0.2-7-0.5c-2.2-0.3-4.4-0.8-6.7-1.7c-3.7-1.5-6.5-3.7-8.5-6.4c-2-2.8-3.2-5.8-3.6-9.2c-0.4-3.3-0.1-6.7,1.1-10.2
		c1.1-3.4,2.9-6.5,5.4-9.2c2.5-2.7,5.5-4.9,9.2-6.4C648.5,34.8,652.7,34.2,657.5,34.5z M667.5,34.5c6.4,0.3,11.9,1.2,16.5,2.7
		c4.7,1.5,8,3.9,10,7.3c-2.3,1.8-4.4,3.7-6.4,5.7c-2,2-4,4-6.1,6c-1-0.6-1.9-1.3-2.9-2c-0.9-0.8-1.9-1.4-3-2
		c-1.1-0.6-2.2-1.1-3.5-1.5c-1.3-0.4-2.8-0.6-4.7-0.6V34.5z"/>
	<path d="M821.9,36.3v78.3h-21.4V36.3H821.9z M919,114.6h-21.4c-0.4-2.8-0.6-6.3-0.4-10.5c0.1-4.1,0.3-8.5,0.5-13
		c0.2-4.5,0.4-9.1,0.4-13.7c0.1-4.6-0.1-8.7-0.5-12.3c-0.1-1.6-0.5-3.4-1-5.3c-0.5-1.9-1.4-3.7-2.6-5.2c-1.3-1.6-3-2.8-5.2-3.6
		c-2.2-0.8-5.1-0.9-8.8-0.3c-3.7,0.6-6.3,2.2-7.9,4.7c-1.6,2.5-2.6,5.7-3.1,9.4c-0.4,3.7-0.5,7.9-0.1,12.4c0.4,4.5,0.8,9,1.3,13.6
		c0.5,4.5,0.8,8.9,1,13.1c0.1,4.2-0.3,7.8-1.3,10.8h-21.4c-0.6-5.2-0.7-10.6-0.3-16.4c0.4-5.8,0.6-11.5,0.7-17.2
		c0.1-5.7-0.1-11-0.7-16.1c-0.6-5.1-2.2-9.5-4.8-13.3c-2-0.6-4.3-0.9-7-0.9c-2.5,0-4.8,0.3-6.8,0.9c0.3-1.1,0.4-2.3,0.2-3.7
		c-0.1-1.4-0.2-2.7-0.3-4c-0.1-1.3,0-2.6,0.1-3.8c0.1-1.2,0.6-2.2,1.3-2.9c2-0.4,3.7-0.8,5.2-1.2c1.5-0.4,2.9-0.7,4.3-0.9
		c1.4-0.2,3-0.3,4.7-0.3c1.7,0,3.7,0.2,5.9,0.6c1.3,0.2,2.6,0.7,4,1.4c1.4,0.8,2.7,1.6,3.8,2.4c1.1,0.9,2.2,1.6,3.1,2.3
		c0.9,0.7,1.4,1.1,1.6,1.1c0.8,0,1.9-0.3,3.1-1c1.2-0.7,2.5-1.4,3.8-2.3c1.3-0.9,2.7-1.7,4.1-2.5c1.4-0.8,2.8-1.3,4.2-1.5
		c9.5-1.5,16.9-1.3,22.4,0.6c5.4,1.9,9.6,4.9,12.4,9c2.8,4.1,4.6,9,5.3,14.8c0.7,5.8,1,11.9,0.7,18.3c-0.2,6.4-0.5,12.7-0.8,19.1
		C918.3,103.6,918.4,109.4,919,114.6z"/>
	<path d="M967.1,34.6c1.4,0.3,2.3,1,2.5,2.2c0.3,1.2,0.4,2.5,0.2,3.9c-0.1,1.4-0.3,2.9-0.5,4.4c-0.2,1.5-0.1,2.8,0.3,3.9
		c-3.7,1.8-6.3,4.7-7.8,8.6c-1.6,3.9-2.4,8.2-2.6,12.9c-0.2,4.6,0.1,9.3,1.1,14c0.9,4.7,1.9,8.8,3.1,12.2c-0.1,0.7,0.1,1.2,0.6,1.4
		c0.6,0.2,1.2,0.3,2,0.4c0.8,0.1,1.6,0.1,2.3,0.2c0.8,0.1,1.2,0.3,1.4,0.8v15.3c-5.4-0.1-10.1-1.3-14.2-3.6
		c-4.1-2.3-7.5-5.3-10.3-8.9c-2.8-3.6-4.8-7.8-6.2-12.4c-1.4-4.6-2.2-9.4-2.3-14.2c-0.1-4.8,0.4-9.6,1.7-14.4
		c1.3-4.7,3.2-9,5.7-12.8c2.5-3.8,5.7-6.9,9.5-9.4C957.3,36.5,961.8,35,967.1,34.6z M978.3,34.6c5.6,0.2,10.5,1.5,14.6,3.8
		c4.1,2.3,7.5,5.3,10.2,9c2.7,3.7,4.7,7.9,6,12.5c1.3,4.6,2,9.4,2,14.2c0,4.8-0.7,9.6-2.1,14.3c-1.4,4.7-3.4,8.9-6,12.7
		c-2.6,3.8-5.9,6.9-9.9,9.3c-4,2.4-8.5,3.8-13.6,4.2c-0.7-0.8-1.1-1.8-1.3-3c-0.1-1.2-0.2-2.4-0.1-3.7c0.1-1.3,0.2-2.7,0.3-4
		c0.1-1.4,0.1-2.6-0.2-3.7c0.3-0.7,0.8-1.2,1.6-1.6c0.8-0.4,1.6-0.7,2.3-1.1c0.8-0.4,1.5-0.7,2.2-1.1c0.7-0.4,1.2-1,1.5-1.7
		c0.4-3.6,1-7.7,1.7-12.1c0.7-4.4,1-8.8,1-13.1c-0.1-4.3-0.8-8.2-2.3-11.8c-1.5-3.6-4.1-6.2-7.9-8V34.6z"/>
	<path d="M1027,14.5h21.4V36c0.6,0.5,1.4,0.8,2.4,1c1.1,0.2,2.3,0.2,3.6,0.2c1.3,0,2.7-0.1,4.1-0.2c1.4-0.1,2.6-0.1,3.6,0v13.6
		h-13.8c0.1,3.8,0.1,7.8,0,11.8c-0.1,4-0.2,8.1-0.3,12.1c-0.1,4,0,8,0.2,11.8c0.2,3.8,0.7,7.5,1.4,11.1c0.4,0.5,1.1,0.8,2.1,0.9
		c1,0.1,2.1,0.1,3.3,0.1c1.2,0,2.4-0.1,3.7-0.2c1.3-0.1,2.4,0,3.4,0.2v15.3c-8.3,1.1-14.9,1-19.7-0.5c-4.8-1.4-8.4-3.7-10.9-6.8
		c-2.5-3.1-4-6.9-4.6-11.4c-0.6-4.4-0.8-9.1-0.6-14.1c0.1-4.9,0.4-10,0.8-15.2c0.4-5.2,0.4-9.9-0.2-14.4c-0.1-0.5-0.6-0.8-1.3-0.9
		c-0.7-0.1-1.5-0.1-2.4-0.1c-0.9,0.1-1.9,0.1-2.9,0.2c-1,0.1-1.8,0.1-2.3,0V36.9h8.9V14.5z"/>
	<path d="M1099.7,7.4v107.1h-20.1V9.9c0-1.4,0.8-2.3,2.3-2.6c1.6-0.3,3.4-0.4,5.5-0.3c2.1,0.1,4.3,0.3,6.6,0.5
		C1096.2,7.7,1098.2,7.7,1099.7,7.4z M1148.9,114.5h-21.4c-0.8-3.1-1.2-7-1-11.6c0.2-4.6,0.5-9.4,1-14.4c0.4-5,0.7-9.9,0.8-14.8
		c0.1-4.8-0.3-9.1-1.4-12.7c-1.1-3.6-3-6.3-5.8-8.2c-2.8-1.9-7-2.3-12.5-1.4c-1.8-4.3-2.1-7.8-0.7-10.2c1.3-2.5,3.5-4.2,6.4-5.2
		c2.9-1,6.2-1.4,9.9-1.3c3.7,0.2,6.9,0.6,9.7,1.4c4.2,1.2,7.5,3.5,9.7,6.8c2.3,3.3,3.8,7.3,4.7,11.8s1.2,9.5,1.2,14.9
		c-0.1,5.4-0.3,10.8-0.6,16.2c-0.4,5.4-0.6,10.6-0.7,15.5C1147.9,106.4,1148.2,110.8,1148.9,114.5z"/>
	<path d="M1196.7,34.6V49c-4,1.6-6.9,3.9-8.8,6.8c-1.9,2.9-2.4,7-1.4,12.1c0.3,0.5,0.8,0.8,1.6,0.9c0.8,0.1,1.7,0.1,2.8,0.1
		c1.1,0,2.1-0.1,3.2-0.2c1.1-0.1,1.9,0,2.6,0.2v11.7h-10.2c-1.4,9.8,2,16.1,10.2,18.9v14.4c-5.7,0-10.6-1.1-14.8-3.4
		c-4.2-2.3-7.7-5.3-10.5-8.9c-2.8-3.7-4.8-7.9-6.1-12.6c-1.3-4.7-2-9.5-1.9-14.5c0.1-4.9,0.8-9.8,2.2-14.5c1.4-4.7,3.5-9,6.4-12.7
		c2.8-3.7,6.3-6.7,10.4-9C1186.4,35.9,1191.2,34.7,1196.7,34.6z M1205.4,34.6c7.5,0.4,13.4,1.9,17.8,4.6c4.4,2.7,7.7,6.1,10.1,10.2
		c2.3,4.1,3.8,8.9,4.3,14.2c0.6,5.4,0.8,11,0.6,16.8h-32.8V68.9h11.4c0-2.3-0.1-4.5-0.3-6.7c-0.2-2.1-0.7-4-1.5-5.8
		c-0.8-1.7-1.9-3.2-3.4-4.3c-1.5-1.2-3.6-1.9-6.3-2.2V34.6z M1222,90.6c2.8,1.7,5.3,3.6,7.5,5.8c2.2,2.1,4.3,4.4,6.2,6.8
		c-2.1,1.3-4.2,2.7-6.1,4c-2,1.4-4.1,2.6-6.5,3.7c-2.3,1.1-4.9,2-7.7,2.8c-2.8,0.8-6.1,1.1-10,1.1V99.5c4.5-0.2,7.9-1.2,10.3-3.1
		C1218,94.5,1220.1,92.6,1222,90.6z"/>
	<path d="M1277.3,36.5V115h-21.4V36.5H1277.3z M1284.9,52.7V37.4c3.4-1.1,7-1.7,10.8-1.7c3.8,0,7.3,0.3,10.5,1.1
		c3.2,0.8,5.8,1.8,7.9,3.2c2.1,1.4,3.2,3,3.4,4.8c0,0.5-0.6,1.5-1.8,3c-1.2,1.5-2.6,3-4.2,4.5c-1.6,1.5-3.3,2.9-5,4.2
		c-1.7,1.3-3,1.9-4,1.9c-1.7,0.1-3.1-0.4-4.3-1.5c-1.2-1.1-2.4-2.2-3.6-3.3c-1.2-1.1-2.5-1.8-4-2.2
		C1289,50.8,1287.1,51.3,1284.9,52.7z"/>
	<path d="M1368.4,6.5v15.3h-11.2c-2.3,1.4-3.5,3.6-3.7,6.4c-0.2,2.9-0.2,5.8-0.1,8.9c0.7,0.5,1.7,0.8,2.9,0.9
		c1.2,0.1,2.5,0.1,3.9,0.1c1.4,0,2.9-0.1,4.3-0.2c1.5-0.1,2.8,0,3.9,0.2v13.5h-15v63h-21.4V52.4c0-0.5-0.3-0.8-1-0.9
		c-0.6-0.1-1.3-0.1-2.1-0.1c-0.8,0.1-1.6,0.1-2.4,0.2c-0.8,0.1-1.6,0-2.1-0.1V38h7.6c-0.3-5.1,0-9.7,0.7-13.9
		c0.8-4.2,2.5-7.7,5.2-10.6c2.7-2.9,6.5-5,11.4-6.3C1354.2,5.9,1360.6,5.6,1368.4,6.5z"/>
	<path d="M1408.2,34.9c0.6,5.2,0.7,10.6,0.3,16.3c-0.4,5.7-0.6,11.4-0.7,17c-0.1,5.6,0.1,10.9,0.7,16c0.6,5.1,2.2,9.4,4.8,13
		c2.3,0.8,4.4,1.3,6.6,1.4c2.1,0.2,4.5,0,7.2-0.5v14.4c-9.3,2-16.7,2.2-22.2,0.6c-5.5-1.6-9.7-4.4-12.5-8.3
		c-2.8-3.9-4.6-8.8-5.3-14.6c-0.7-5.8-1-11.9-0.8-18.3c0.1-6.4,0.4-12.8,0.8-19.2c0.4-6.4,0.4-12.3-0.2-17.7H1408.2z M1456.1,34.9
		v78.5H1436V34.9H1456.1z"/>
	<path d="M1508.6,113.9c-7.6-0.1-14-2.1-19-5.9c-5-3.8-8.8-8.6-11.2-14.2c-2.5-5.7-3.7-11.8-3.7-18.5c0-6.7,1.2-12.9,3.5-18.7
		c2.3-5.8,5.8-10.8,10.5-14.9c4.7-4.1,10.5-6.5,17.4-7c1.4,0.3,2.3,1,2.5,2.2c0.3,1.2,0.4,2.5,0.2,3.9c-0.1,1.4-0.3,2.9-0.5,4.4
		c-0.2,1.5-0.1,2.8,0.3,3.9c-2.4,1.4-4.4,3.5-6.1,6.1c-1.7,2.7-3,5.7-3.9,8.9c-0.9,3.3-1.4,6.7-1.5,10.3c-0.1,3.6,0.3,7,1.1,10.2
		c0.8,3.2,2,6.2,3.8,8.8c1.8,2.6,4,4.6,6.7,6.1V113.9z M1526.2,90.6c3.2,1.4,6.4,2.9,9.3,4.5c3,1.6,5.7,3.4,8.3,5.4
		c-2.5,3.9-6,7.2-10.3,9.8c-4.3,2.6-10.1,4.1-17.5,4.6c-0.8-3.2-1.1-6-0.6-8.3c0.4-2.3,1.2-4.4,2.2-6.3c1.1-1.9,2.4-3.6,3.9-5.1
		C1523.1,93.6,1524.7,92.1,1526.2,90.6z M1516,34.6c8.9,0.2,15.6,1.9,20.2,5c4.6,3.1,7.5,7.5,8.8,13c-3.3,0.6-6.1,1.4-8.5,2.5
		c-2.4,1.1-5,2-7.8,3c-4.9-2-8.6-4.9-10.9-8.6C1515.5,45.9,1514.9,40.9,1516,34.6z"/>
	<path d="M1581.5,7.4v107.1h-21.4c0.3-8.9,0.4-17.9,0.2-27c-0.1-9.1-0.2-18.2-0.3-27.2c-0.1-9,0-18,0.1-26.9
		c0.1-8.9,0.6-17.6,1.3-26.1H1581.5z M1634.5,36.2c-4.9,5.5-9.7,10.9-14.4,16.4c-4.7,5.5-9.5,10.8-14.6,16.1
		c5.1,7.7,10.3,15.2,15.6,22.6c5.3,7.4,10.2,15.2,14.7,23.3h-25.2c-1.8-3.7-4.2-7.6-7.2-11.4c-3-3.9-5.7-8-8.3-12.2
		c-2.5-4.2-4.5-8.7-5.9-13.4c-1.4-4.7-1.4-9.8,0-15.2c0.7-2.5,1.9-4.9,3.5-7c1.6-2.2,3.5-4.3,5.5-6.4c2-2.1,4.1-4.1,6-6.2
		c2-2.1,3.7-4.2,5.1-6.4H1634.5z"/>
	<path d="M1671.6,6.2v16.2h-22.7V7.1c1.3-0.5,2.8-0.8,4.7-0.9c1.8-0.1,3.8-0.1,5.8-0.1c2,0.1,4.1,0.1,6.3,0.2
		C1667.7,6.3,1669.7,6.3,1671.6,6.2z M1671.6,35.9v78.3h-21.4V35.9H1671.6z"/>
	<path d="M1715.6,35.5v78.3h-20.1V35.5H1715.6z M1764.8,113.9h-21.4c-0.6-5.2-0.7-10.6-0.3-16.4c0.4-5.8,0.6-11.5,0.7-17.2
		c0.1-5.7-0.1-11-0.7-16.1c-0.6-5.1-2.2-9.5-4.8-13.3c-0.8-0.5-2-0.8-3.4-0.8c-1.4,0-2.9,0-4.3,0c-1.5,0.1-2.8,0.1-3.9,0.2
		c-1.1,0.1-1.8,0-2.1-0.2c-1.4-3.1-1.9-5.7-1.5-7.7c0.4-2,1.4-3.7,3.1-4.9c1.6-1.3,3.7-2.1,6.1-2.7c2.5-0.5,5-0.7,7.6-0.7
		c2.6,0.1,5.1,0.3,7.5,0.8c2.4,0.5,4.4,1,5.9,1.7c3.7,1.6,6.4,4.2,8.2,7.7c1.8,3.5,2.9,7.5,3.5,12c0.6,4.5,0.7,9.5,0.4,14.8
		c-0.3,5.3-0.6,10.5-1,15.7c-0.4,5.2-0.6,10.1-0.7,14.9C1763.6,106.2,1763.9,110.4,1764.8,113.9z"/>
	<path d="M1784.7,34.2V-0.2h22.2v26.7c-2.8,1.9-5.2,3.6-7.1,5c-1.9,1.4-3.7,2.7-5.3,3.7c-1.6,1.1-3.2,2-4.7,2.8
		c-1.5,0.8-3.2,1.6-5.2,2.4V34.2z"/>
</g>
</svg>
